# xmcd
#
# Track frame offsets: 
#        150
#        1829
#        14129
#        26773
#        39343
#        55347
#        70034
#        78650
#        93057
#        112540
#        127382
#        140214
#        155557
#        168156
#        181396
#
# Disc length: 2598 seconds
#
# Revision: 0
# Processed by: cddbd v1.4PL0 Copyright (c) Steve Scherf et al.
# Submitted via: ExactAudioCopy v0.90b3
#
DISCID=c20a240f
DTITLE=Bluegrass Family - Dreaming
DYEAR=1998
DGENRE=Bluegrass
TTITLE0=Intro
TTITLE1=Don't Follow Me
TTITLE2=East Virginian Blues
TTITLE3=Fireball
TTITLE4=Ready For Love
TTITLE5=Dreaming
TTITLE6=Fire On The Mountain
TTITLE7=Everytime Youe Say Goodbye
TTITLE8=Wher Could I Go
TTITLE9=Julie Ann
TTITLE10=Little Maggie
TTITLE11=These Old Blues
TTITLE12=Fox On The Run
TTITLE13=Kentucky Mandolin
TTITLE14=Somebody Touched Me
EXTD=Christof Kämpf: fiddle, voc.;\nFriedbert Bonin: mandolin, voc.;\n
EXTD=Marlies Bonin: guitar, voc.;\nTom Bodenmann: banjo;\nKäthi Bodenm
EXTD=ann: bass;\nFinn Bodenmann: guitar, voc.;\nTheo Hurter: dobro, vo
EXTD=c.;\nspecial guest 'Somebody Touched Me': Cindy Bonin;
EXTT0=
EXTT1=
EXTT2=
EXTT3=
EXTT4=
EXTT5=
EXTT6=
EXTT7=
EXTT8=
EXTT9=
EXTT10=
EXTT11=
EXTT12=
EXTT13=
EXTT14=
PLAYORDER=
